<svg width="94" height="22" viewBox="0 0 94 22" fill="none" xmlns="http://www.w3.org/2000/svg">
<g clip-path="url(#clip0_101_332)">
<path d="M8.98527 5.07562C8.82846 3.82344 9.45418 2.49574 10.1514 1.68009C10.9431 0.755678 12.3209 0.0472672 13.417 0.00195312C13.5586 1.307 13.041 2.58939 12.2813 3.53041C11.4912 4.45482 10.2215 5.16927 8.98527 5.07713V5.07562Z" fill="#2E2C2F"/>
<path d="M18.0394 16.1471C18.0241 16.2241 17.5857 17.7406 16.4972 19.2708C15.5807 20.6241 14.6322 21.9443 13.1128 21.9669C11.6407 21.9972 11.1474 21.1045 9.45447 21.1045C7.76155 21.1045 7.22261 21.9443 5.81286 21.9972C4.36352 22.0515 3.2689 20.5531 2.32044 19.2164C0.432643 16.4824 -1.03192 11.5084 0.933517 8.12801C1.88198 6.46649 3.62819 5.4001 5.48402 5.36989C6.92422 5.34723 8.27156 6.34112 9.1576 6.34112C10.0436 6.34112 11.6863 5.14332 13.3945 5.32307C14.1085 5.34724 16.144 5.61006 17.4593 7.50721C17.3573 7.56914 15.0387 8.92252 15.0631 11.7033C15.0935 15.0294 17.9998 16.1335 18.0394 16.1486V16.1471Z" fill="#2E2C2F"/>
<path d="M30.7326 5.87018H28.4307L24.71 17.3482H26.6297L27.6543 13.9754H31.4132L32.4941 17.3482H34.4671L30.7311 5.87018H30.7326ZM27.9832 12.5601L28.9468 9.56932C29.1965 8.62074 29.3762 7.89874 29.4949 7.40935H29.533C29.8161 8.54371 30.011 9.25816 30.113 9.56932L31.0919 12.5601H27.9832Z" fill="#2E2C2F"/>
<path d="M43.0297 10.0584C42.372 9.28956 41.5575 8.90137 40.5709 8.90137C39.318 8.90137 38.3772 9.39831 37.7591 10.3846H37.7271L37.6251 9.07054H35.9961C36.0433 10.0025 36.0661 10.9043 36.0661 11.7909V20.7042H37.9219V16.3601C38.4076 17.1455 39.1977 17.5337 40.303 17.5337C41.3215 17.5337 42.1832 17.1757 42.8728 16.4462C43.6493 15.6305 44.0314 14.5188 44.0314 13.1126C44.0314 11.8468 43.7026 10.8348 43.0297 10.0584ZM41.5575 15.2876C41.1662 15.8163 40.6258 16.0882 39.9285 16.0882C39.3332 16.0882 38.8476 15.8782 38.4792 15.4674C38.1107 15.055 37.9235 14.5415 37.9235 13.9448V12.5612C37.9235 12.4132 37.9539 12.2274 38.0102 12.0024C38.1199 11.5115 38.3711 11.1233 38.738 10.8212C39.114 10.5266 39.5296 10.3711 39.9833 10.3711C40.6577 10.3711 41.1967 10.6429 41.5971 11.1867C41.9655 11.7078 42.1451 12.3679 42.1451 13.176C42.1451 14.0536 41.9487 14.7529 41.5575 15.2891V15.2876Z" fill="#2E2C2F"/>
<path d="M52.616 10.0584C51.9583 9.28956 51.1438 8.90137 50.1573 8.90137C48.9044 8.90137 47.965 9.39831 47.3454 10.3846H47.315L47.213 9.07054H45.584C45.6312 10.0025 45.654 10.9043 45.654 11.7909V20.7042H47.5098V16.3601C47.9955 17.1455 48.7871 17.5337 49.8909 17.5337C50.9094 17.5337 51.7711 17.1757 52.4592 16.4462C53.2356 15.6305 53.6193 14.5188 53.6193 13.1126C53.6193 11.8468 53.2904 10.8348 52.616 10.0584ZM51.1438 15.2876C50.7602 15.8163 50.2106 16.0882 49.5149 16.0882C48.9196 16.0882 48.4339 15.8782 48.0655 15.4674C47.6971 15.055 47.5083 14.5415 47.5083 13.9448V12.5612C47.5083 12.4132 47.5403 12.2274 47.5951 12.0024C47.7123 11.5115 47.9559 11.1233 48.3243 10.8212C48.7004 10.5266 49.1145 10.3711 49.5697 10.3711C50.2426 10.3711 50.783 10.6429 51.1819 11.1867C51.5503 11.7078 51.73 12.3679 51.73 13.176C51.73 14.0536 51.5427 14.7529 51.1438 15.2891V15.2876Z" fill="#2E2C2F"/>
<path d="M63.635 12.1341C64.1131 12.6703 64.3475 13.3379 64.3475 14.1309C64.3475 15.1097 64.0035 15.9027 63.3214 16.516C62.5693 17.1836 61.5204 17.5189 60.1731 17.5189C58.9262 17.5189 57.9336 17.2772 57.1815 16.8045L57.6124 15.2728C58.4269 15.7471 59.3205 15.9873 60.2903 15.9873C60.9876 15.9873 61.5356 15.8317 61.9193 15.5221C62.3105 15.2109 62.5069 14.791 62.5069 14.2714C62.5069 13.8047 62.3425 13.4165 62.0289 13.0978C61.7077 12.7791 61.1748 12.483 60.4304 12.2111C58.3857 11.4574 57.3764 10.3608 57.3764 8.92433C57.3764 7.98482 57.7372 7.21448 58.4497 6.60878C59.1637 6.01064 60.1106 5.70703 61.2936 5.70703C62.3425 5.70703 63.2194 5.88678 63.9167 6.2508L63.4478 7.74315C62.7901 7.39423 62.0532 7.21448 61.2235 7.21448C60.5735 7.21448 60.0558 7.37761 59.6889 7.68877C59.3829 7.97576 59.2261 8.31863 59.2261 8.73099C59.2261 9.18111 59.4073 9.56326 59.759 9.85025C60.065 10.1221 60.6283 10.4167 61.4428 10.7354C62.4384 11.1326 63.1661 11.5979 63.6366 12.1341H63.635Z" fill="#2E2C2F"/>
<path d="M68.4443 9.07084H70.4889V10.4544H68.4443V14.4723C68.4443 15.4903 68.8051 16.0024 69.5252 16.0024C69.8541 16.0024 70.1281 15.9722 70.3474 15.9163L70.4022 17.315C70.0337 17.4464 69.5572 17.5174 68.962 17.5174C68.2251 17.5174 67.6618 17.2923 67.2462 16.8483C66.8321 16.4057 66.6266 15.6595 66.6266 14.6188V10.4454H65.4132V9.06933H66.6266V7.55433L68.4443 7.01056V9.06933V9.07084Z" fill="#2E2C2F"/>
<path d="M78.6182 10.1211C77.8753 9.31301 76.8872 8.9082 75.6663 8.9082C74.4453 8.9082 73.3872 9.32056 72.6351 10.1362C71.8907 10.9519 71.5146 12.0016 71.5146 13.2825C71.5146 14.5634 71.8755 15.5286 72.6032 16.3291C73.3324 17.1297 74.3113 17.533 75.5323 17.533C76.7533 17.533 77.819 17.1131 78.5863 16.2733C79.314 15.4576 79.6824 14.4169 79.6824 13.1421C79.6824 11.8672 79.3292 10.896 78.6167 10.1196L78.6182 10.1211ZM77.2557 15.1555C76.8492 15.8246 76.292 16.1585 75.5871 16.1585C74.8822 16.1585 74.3022 15.8322 73.9033 15.1706C73.5745 14.6344 73.4101 13.9819 73.4101 13.2206C73.4101 12.4593 73.5669 11.7766 73.9033 11.2313C74.287 10.5712 74.8594 10.2435 75.6039 10.2435C76.3483 10.2435 76.8796 10.5697 77.2724 11.2313C77.6013 11.7751 77.7657 12.42 77.7657 13.1813C77.7657 13.9426 77.5937 14.5951 77.2572 15.154L77.2557 15.1555Z" fill="#2E2C2F"/>
<path d="M85.7059 8.93211L85.7135 10.6873C85.5339 10.6571 85.3375 10.6405 85.1274 10.6405C84.4773 10.6405 83.9688 10.8821 83.6156 11.3715C83.3096 11.7975 83.1528 12.3503 83.1528 13.0028V17.3469H81.297V11.6751C81.297 10.719 81.2818 9.84897 81.2422 9.07107H82.8559L82.926 10.6571H82.9808C83.1757 10.1133 83.4817 9.66922 83.9049 9.34296C84.3205 9.04842 84.7666 8.90039 85.2446 8.90039C85.4166 8.90039 85.5735 8.9155 85.7074 8.9306L85.7059 8.93211Z" fill="#2E2C2F"/>
<path d="M93.9992 12.8172C93.9992 11.7841 93.7496 10.9216 93.2563 10.2056C92.6443 9.3205 91.7293 8.87793 90.5297 8.87793C89.33 8.87793 88.3374 9.3205 87.6158 10.2056C86.9261 11.0379 86.582 12.0786 86.582 13.3232C86.582 14.5679 86.9505 15.6071 87.6858 16.3608C88.4226 17.1145 89.4396 17.4952 90.7321 17.4952C91.8054 17.4952 92.7372 17.3245 93.5288 16.9816L93.2396 15.7083C92.5651 15.9651 91.8131 16.0965 90.9909 16.0965C90.248 16.0965 89.6436 15.9016 89.1747 15.521C88.6571 15.0935 88.3922 14.4636 88.3678 13.648H93.9277C93.9749 13.4229 93.9977 13.1435 93.9977 12.8157L93.9992 12.8172ZM88.3754 12.3354C88.4302 11.7826 88.619 11.3022 88.9235 10.905C89.2995 10.408 89.7928 10.1588 90.3957 10.1588C91.0534 10.1588 91.5482 10.4156 91.8679 10.9291C92.1175 11.3249 92.2439 11.7992 92.2287 12.3429L88.3739 12.3354H88.3754Z" fill="#2E2C2F"/>
</g>
<defs>
<clipPath id="clip0_101_332">
<rect width="94" height="22" fill="white"/>
</clipPath>
</defs>
</svg>
