<svg width="98" height="24" viewBox="0 0 98 24" fill="none" xmlns="http://www.w3.org/2000/svg">
<g clip-path="url(#clip0_101_324)">
<path d="M96.302 10.1525L94.5687 14.6676H94.5167L92.7085 10.1525H91.0731L93.7824 16.4659L92.2342 19.9763H93.8237L98.0016 10.1525H96.3035H96.302ZM84.0527 6.40574H82.5382V16.8211H84.0527V6.40418V6.40574ZM78.3557 6.40574H74.7163V16.8211H76.2415V12.8788H78.3618C80.1441 12.9414 81.6387 11.5141 81.6999 9.68921C81.6999 9.67513 81.6999 9.65948 81.6999 9.64539C81.6632 7.81741 80.1838 6.36662 78.397 6.40574C78.3833 6.40574 78.368 6.40574 78.3542 6.40574H78.3557ZM78.3955 11.4233H76.24V7.87689H78.4016C79.3593 7.87689 80.1349 8.67037 80.1349 9.65009C80.1349 10.6298 79.3593 11.4233 78.4016 11.4233H78.3955ZM87.784 9.9271C86.6504 9.86137 85.5872 10.4874 85.0747 11.5234L86.427 12.115C86.7009 11.6033 87.2455 11.3059 87.813 11.3591C88.6131 11.2777 89.326 11.874 89.4071 12.6925C89.4071 12.6957 89.4071 12.6972 89.4071 12.7004V12.8068C88.9222 12.5392 88.3806 12.3983 87.8299 12.3983C86.3796 12.3983 84.9003 13.2137 84.9003 14.7631C84.9003 16.1576 86.0843 17.0559 87.4245 17.0559C88.2016 17.106 88.9436 16.7163 89.3536 16.0386H89.4117V16.843H90.891V12.835C90.891 10.9851 89.5387 9.95683 87.7947 9.95683L87.7824 9.9271H87.784ZM87.605 15.6364C87.1078 15.6364 86.4148 15.3766 86.4148 14.749C86.4148 13.9446 87.2761 13.6378 88.0272 13.6378C88.5122 13.6253 88.991 13.7458 89.4132 13.9868C89.2985 14.9212 88.5259 15.6254 87.605 15.6364ZM32.8207 17.0434C29.8284 17.0528 27.3853 14.6003 27.3379 11.5407C27.3853 8.48099 29.8284 6.027 32.8207 6.03796C34.2052 6.01448 35.5392 6.56225 36.5244 7.55762L35.478 8.61559C34.7682 7.90506 33.8136 7.5091 32.8207 7.51693C30.6607 7.51693 28.909 9.3089 28.909 11.5188C28.909 13.7286 30.6607 15.5206 32.8207 15.5206C33.8411 15.5628 34.8325 15.1622 35.5484 14.4157C36.0181 13.8976 36.3026 13.2293 36.3516 12.5235H32.8207V11.0633H37.7896C37.8431 11.3732 37.8691 11.6878 37.8646 12.0039C37.915 13.3123 37.4546 14.5878 36.5872 15.5503C35.5958 16.5739 34.2267 17.1185 32.8207 17.0465V17.0434ZM45.5488 13.497C45.6268 15.4345 44.1536 17.07 42.2612 17.1498C40.3673 17.2296 38.7687 15.7225 38.6907 13.7865C38.6861 13.691 38.6861 13.594 38.6907 13.4985C38.6126 11.561 40.0858 9.92553 41.9782 9.84572C43.8721 9.7659 45.4708 11.273 45.5488 13.209C45.5534 13.3045 45.5534 13.4015 45.5488 13.497ZM44.0465 13.497C44.1475 12.4077 43.3673 11.4421 42.3025 11.3388C41.2378 11.2355 40.2939 12.0337 40.1929 13.1229C40.1807 13.2481 40.1807 13.3733 40.1929 13.497C40.092 14.5862 40.8722 15.5519 41.9369 15.6552C43.0017 15.7585 43.9456 14.9603 44.0465 13.871C44.0588 13.7458 44.0588 13.6206 44.0465 13.497ZM53.2331 13.497C53.2331 15.4329 51.6987 17.0027 49.8063 17.0027C47.9139 17.0027 46.3795 15.4329 46.3795 13.497C46.3795 11.561 47.9139 9.99127 49.8063 9.99127C51.6987 9.99127 53.2331 11.561 53.2331 13.497ZM51.7369 13.497C51.8379 12.4077 51.0577 11.4421 49.9929 11.3388C48.9282 11.2355 47.9843 12.0337 47.8833 13.1229C47.8711 13.2481 47.8711 13.3733 47.8833 13.497C47.7823 14.5862 48.5626 15.5519 49.6273 15.6552C50.6921 15.7585 51.636 14.9603 51.7369 13.871C51.7492 13.7458 51.7492 13.6206 51.7369 13.497ZM60.7322 10.1697V16.5363C60.7322 19.1484 59.2131 20.2251 57.4217 20.2251C56.0785 20.2361 54.8623 19.4207 54.3361 18.1561L55.6471 17.5645C55.9256 18.3017 56.6079 18.7978 57.3804 18.8228C58.5354 18.8228 59.2407 18.0951 59.2407 16.7429V16.2342H59.1825C58.7236 16.757 58.0673 17.0528 57.3804 17.0434C55.4651 17.0434 53.9139 15.4548 53.9139 13.497C53.9139 11.5391 55.4666 9.95057 57.3804 9.95057C58.0719 9.93492 58.7358 10.2229 59.2055 10.7425H59.2636V10.1509H60.7307V10.1681L60.7322 10.1697ZM59.386 13.5158C59.4732 12.4124 58.67 11.4452 57.5915 11.356C57.5716 11.3544 57.5502 11.3529 57.5303 11.3513C56.4212 11.3889 55.5508 12.3404 55.5875 13.4751C55.5875 13.4876 55.5875 13.5017 55.589 13.5142C55.537 14.6395 56.3876 15.5941 57.4875 15.6458C57.5013 15.6458 57.5166 15.6458 57.5303 15.6473C58.5981 15.6051 59.4304 14.6848 59.3891 13.5924C59.3891 13.5658 59.386 13.5408 59.3845 13.5142L59.386 13.5158ZM63.4079 6.4167V16.8258H61.8827V6.4167H63.4079ZM69.417 14.6676L70.6072 15.4721C69.9616 16.458 68.877 17.0481 67.7189 17.0449C65.8648 17.0715 64.3411 15.5566 64.3151 13.6597C64.3151 13.6065 64.3151 13.5517 64.3151 13.4985C64.1636 11.7034 65.4624 10.1212 67.2171 9.96622C68.6965 9.83476 70.0687 10.766 70.5261 12.2105L70.6822 12.619L66.0606 14.5753C66.3558 15.253 67.0228 15.6786 67.748 15.6505C68.4333 15.6395 69.0636 15.2686 69.417 14.6692V14.6676ZM65.7715 13.3905L68.88 12.079C68.6337 11.586 68.1258 11.2918 67.5858 11.3278C66.5364 11.3748 65.724 12.2825 65.7699 13.3561C65.7699 13.3671 65.7699 13.3796 65.7715 13.3905Z" fill="#2E2C2F"/>
<path d="M9.08252 12.002L0 21.1716V2.83398L9.08252 12.002Z" fill="#2E2C2F"/>
<path d="M14.5244 17.4975L3.9977 23.6309C3.80494 23.7451 3.59842 23.8343 3.38271 23.8969C2.19252 24.2397 0.962546 23.7013 0.361328 22.6621L10.0007 12.9307L14.5244 17.4975Z" fill="#2E2C2F"/>
<path d="M14.5107 6.52468L10.0008 11.0774L0.358398 1.34281C0.831111 0.522729 1.70005 -0.00156155 2.6623 3.49417e-06C3.14419 0.00156854 3.61691 0.134598 4.03302 0.38344L14.5092 6.52468H14.5107Z" fill="#2E2C2F"/>
<path d="M19.8643 14.3877L15.6941 16.8229L10.918 12.0025L15.6711 7.2041L19.8781 9.66905H19.8628C20.3325 9.92102 20.7149 10.3123 20.9612 10.7928C21.6282 12.0949 21.1356 13.7053 19.8628 14.3877H19.8643Z" fill="#2E2C2F"/>
</g>
<defs>
<clipPath id="clip0_101_324">
<rect width="98" height="24" fill="white"/>
</clipPath>
</defs>
</svg>
